<svg width="17" height="14" viewBox="0 0 17 14" fill="none" xmlns="http://www.w3.org/2000/svg">
<g clip-path="url(#clip0_3001_388)">
<path opacity="0.4" d="M5.3999 2.2001C5.3999 1.3176 6.1174 0.600098 6.9999 0.600098H14.9999C15.8824 0.600098 16.5999 1.3176 16.5999 2.2001V7.8001C16.5999 8.6826 15.8824 9.4001 14.9999 9.4001H6.9999C6.1174 9.4001 5.3999 8.6826 5.3999 7.8001V2.2001ZM11.9999 3.0001C11.7999 3.0001 11.6124 3.1001 11.4999 3.2676L10.0999 5.3676L9.6674 4.8251C9.5524 4.6826 9.3799 4.6001 9.1999 4.6001C9.0199 4.6001 8.8449 4.6826 8.7324 4.8251L7.1324 6.8251C6.9874 7.0051 6.9599 7.2526 7.0599 7.4601C7.1599 7.6676 7.3699 7.8001 7.5999 7.8001H9.5999H10.7999H14.3999C14.6224 7.8001 14.8249 7.6776 14.9299 7.4826C15.0349 7.2876 15.0224 7.0501 14.8999 6.8676L12.4999 3.2676C12.3874 3.1001 12.1999 3.0001 11.9999 3.0001ZM8.1999 3.8001C8.41208 3.8001 8.61556 3.71581 8.76559 3.56578C8.91562 3.41575 8.9999 3.21227 8.9999 3.0001C8.9999 2.78792 8.91562 2.58444 8.76559 2.43441C8.61556 2.28438 8.41208 2.2001 8.1999 2.2001C7.98773 2.2001 7.78425 2.28438 7.63422 2.43441C7.48419 2.58444 7.3999 2.78792 7.3999 3.0001C7.3999 3.21227 7.48419 3.41575 7.63422 3.56578C7.78425 3.71581 7.98773 3.8001 8.1999 3.8001Z" fill="white"/>
<path d="M12.4999 3.2675L14.8999 6.8675C15.0224 7.0525 15.0349 7.2875 14.9299 7.4825C14.8249 7.6775 14.6224 7.8 14.3999 7.8H10.7999H9.59985H7.59985C7.36985 7.8 7.15985 7.6675 7.05985 7.46C6.95985 7.2525 6.98735 7.005 7.13235 6.825L8.73235 4.825C8.84735 4.6825 9.01735 4.6 9.19985 4.6C9.38235 4.6 9.55485 4.6825 9.66735 4.825L10.0999 5.365L11.4999 3.265C11.6124 3.1 11.7999 3 11.9999 3C12.1999 3 12.3874 3.1 12.4999 3.2675ZM2.19985 3.8H5.39985V5.4C4.95735 5.4 4.59985 5.7575 4.59985 6.2V11C4.59985 11.4425 4.95735 11.8 5.39985 11.8H8.59985C9.04235 11.8 9.39985 11.4425 9.39985 11V9.4H13.3999V11.8C13.3999 12.6825 12.6824 13.4 11.7999 13.4H2.19985C1.31735 13.4 0.599854 12.6825 0.599854 11.8V5.4C0.599854 4.5175 1.31735 3.8 2.19985 3.8ZM2.39985 5.4C2.17985 5.4 1.99985 5.58 1.99985 5.8V6.2C1.99985 6.42 2.17985 6.6 2.39985 6.6H2.79985C3.01985 6.6 3.19985 6.42 3.19985 6.2V5.8C3.19985 5.58 3.01985 5.4 2.79985 5.4H2.39985ZM2.39985 8C2.17985 8 1.99985 8.18 1.99985 8.4V8.8C1.99985 9.02 2.17985 9.2 2.39985 9.2H2.79985C3.01985 9.2 3.19985 9.02 3.19985 8.8V8.4C3.19985 8.18 3.01985 8 2.79985 8H2.39985ZM2.39985 10.6C2.17985 10.6 1.99985 10.78 1.99985 11V11.4C1.99985 11.62 2.17985 11.8 2.39985 11.8H2.79985C3.01985 11.8 3.19985 11.62 3.19985 11.4V11C3.19985 10.78 3.01985 10.6 2.79985 10.6H2.39985ZM10.7999 11V11.4C10.7999 11.62 10.9799 11.8 11.1999 11.8H11.5999C11.8199 11.8 11.9999 11.62 11.9999 11.4V11C11.9999 10.78 11.8199 10.6 11.5999 10.6H11.1999C10.9799 10.6 10.7999 10.78 10.7999 11Z" fill="white"/>
</g>
<defs>
<clipPath id="clip0_3001_388">
<rect width="16" height="12.8" fill="white" transform="translate(0.599854 0.600098)"/>
</clipPath>
</defs>
</svg>
